/* XPM */
static char * eiciel_xpm[] = {
"32 32 285 2",
"  	c None",
". 	c #011519",
"+ 	c #001215",
"@ 	c #010D12",
"# 	c #044252",
"$ 	c #066F8B",
"% 	c #0693B9",
"& 	c #0585A7",
"* 	c #035D75",
"= 	c #01232B",
"- 	c #001014",
"; 	c #010F13",
"> 	c #032933",
", 	c #0CA1C9",
"' 	c #0CB7E4",
") 	c #0AB9E7",
"! 	c #09BBEA",
"~ 	c #08BDED",
"{ 	c #07BFEF",
"] 	c #05C1F2",
"^ 	c #027695",
"/ 	c #000F13",
"( 	c #063F4F",
"_ 	c #0FB1DD",
": 	c #0EB3E0",
"< 	c #0DB5E2",
"[ 	c #0BB7E5",
"} 	c #0AB9E8",
"| 	c #06BFF0",
"1 	c #05C1F3",
"2 	c #03A4CF",
"3 	c #021319",
"4 	c #11A6CF",
"5 	c #10AFDB",
"6 	c #0FB1DE",
"7 	c #0CB5E3",
"8 	c #0BB8E6",
"9 	c #0ABAE8",
"0 	c #09BCEB",
"a 	c #07BEEE",
"b 	c #06C0F0",
"c 	c #05C2F3",
"d 	c #026F8A",
"e 	c #001114",
"f 	c #020E13",
"g 	c #0D718D",
"h 	c #13ACD6",
"i 	c #11AED9",
"j 	c #10B0DB",
"k 	c #0FB2DE",
"l 	c #0DB4E1",
"m 	c #0CB6E4",
"n 	c #0ABAE9",
"o 	c #08BCEC",
"p 	c #06C0F1",
"q 	c #00181D",
"r 	c #020F13",
"s 	c #1396BA",
"t 	c #14AAD4",
"u 	c #12ACD7",
"v 	c #10B0DC",
"w 	c #0EB2DF",
"x 	c #0DB4E2",
"y 	c #0BB8E7",
"z 	c #09BAEA",
"A 	c #08BDEC",
"B 	c #06C1F2",
"C 	c #014657",
"D 	c #020C0F",
"E 	c #16A6CF",
"F 	c #14A8D2",
"G 	c #13AAD5",
"H 	c #12ADD7",
"I 	c #11AFDA",
"J 	c #0EB3DF",
"K 	c #0CB7E5",
"L 	c #07BFF0",
"M 	c #037290",
"N 	c #00080C",
"O 	c #17A5CD",
"P 	c #15A7D0",
"Q 	c #14A9D2",
"R 	c #13ABD5",
"S 	c #12ADD8",
"T 	c #0DB5E3",
"U 	c #09BBEB",
"V 	c #047897",
"W 	c #000D0E",
"X 	c #1693B7",
"Y 	c #16A5CE",
"Z 	c #14A9D3",
"` 	c #13ABD6",
" .	c #11ADD8",
"..	c #0EB4E1",
"+.	c #0CB6E3",
"@.	c #08BCEB",
"#.	c #024455",
"$.	c #020C10",
"%.	c #116D87",
"&.	c #17A4CC",
"*.	c #16A6CE",
"=.	c #15A8D1",
"-.	c #12ACD6",
";.	c #0FB2DF",
">.	c #01151B",
",.	c #041C22",
"'.	c #179DC3",
").	c #15A8D2",
"!.	c #13AAD4",
"~.	c #11AEDA",
"{.	c #0787A8",
"].	c #010F12",
"^.	c #020C0E",
"/.	c #07333F",
"(.	c #18A2CA",
"_.	c #16A7CF",
":.	c #0BA0C7",
"<.	c #010E12",
"[.	c #010D10",
"}.	c #0E5C72",
"|.	c #18A3CB",
"1.	c #032E3A",
"2.	c #030D12",
"3.	c #116882",
"4.	c #19A1C9",
"5.	c #15A7D1",
"6.	c #14AAD3",
"7.	c #096A85",
"8.	c #072933",
"9.	c #1B9EC4",
"0.	c #1AA0C7",
"a.	c #19A2C9",
"b.	c #03242E",
"c.	c #1A8AAC",
"d.	c #1C9CC2",
"e.	c #0D99BF",
"f.	c #030D10",
"g.	c #135970",
"h.	c #1E98BD",
"i.	c #1D9AC0",
"j.	c #1B9FC5",
"k.	c #19A1C8",
"l.	c #1DA5CB",
"m.	c #24AAD0",
"n.	c #085D74",
"o.	c #000E11",
"p.	c #041114",
"q.	c #2193B6",
"r.	c #1F97BB",
"s.	c #1E99BE",
"t.	c #1D9BC0",
"u.	c #33A7C9",
"v.	c #BDE4EF",
"w.	c #FAFDFE",
"x.	c #FEFFFF",
"y.	c #D8F0F7",
"z.	c #3CB6D8",
"A.	c #11ADD9",
"B.	c #0FAAD4",
"C.	c #011013",
"D.	c #030C0F",
"E.	c #175E74",
"F.	c #2293B6",
"G.	c #2095B9",
"H.	c #209ABF",
"I.	c #D4ECF3",
"J.	c #FFFFFF",
"K.	c #B4DFEC",
"L.	c #84CDE2",
"M.	c #E2F4F9",
"N.	c #09657E",
"O.	c #020D10",
"P.	c #041115",
"Q.	c #248EB0",
"R.	c #2392B4",
"S.	c #2194B7",
"T.	c #2096B9",
"U.	c #63B7D0",
"V.	c #ECF7FA",
"W.	c #1C9EC4",
"X.	c #CCEBF3",
"Y.	c #2CAED4",
"Z.	c #11AAD5",
"`.	c #011014",
" +	c #030B0E",
".+	c #1A5E73",
"++	c #258EAF",
"@+	c #2490B2",
"#+	c #2292B5",
"$+	c #8CC9DB",
"%+	c #F0F8FB",
"&+	c #C0E3EE",
"*+	c #C0E4EF",
"=+	c #EAF6FA",
"-+	c #59BEDB",
";+	c #16A7D0",
">+	c #0A6983",
",+	c #051318",
"'+	c #2789A9",
")+	c #268CAD",
"!+	c #258EB0",
"~+	c #2390B2",
"{+	c #89C6D9",
"]+	c #EAF5F9",
"^+	c #8ECDE0",
"/+	c #8ECEE1",
"(+	c #8DCFE2",
"_+	c #8CD0E4",
":+	c #49B6D6",
"<+	c #12AAD5",
"[+	c #011217",
"}+	c #020B0C",
"|+	c #18576B",
"1+	c #278AAA",
"2+	c #278BAB",
"3+	c #268DAE",
"4+	c #248FB0",
"5+	c #2391B3",
"6+	c #60B1CA",
"7+	c #F7FBFD",
"8+	c #31A1C3",
"9+	c #1D9BC1",
"0+	c #1B9DC3",
"a+	c #1A9FC6",
"b+	c #09647C",
"c+	c #030B0D",
"d+	c #2585A3",
"e+	c #278BAC",
"f+	c #258DAE",
"g+	c #248FB1",
"h+	c #2491B4",
"i+	c #CCE6EE",
"j+	c #D1EAF1",
"k+	c #6BBCD4",
"l+	c #59B6D2",
"m+	c #88CCE0",
"n+	c #5EBCD8",
"o+	c #11A1CA",
"p+	c #010E11",
"q+	c #0E303C",
"r+	c #268CAC",
"s+	c #379CBB",
"t+	c #B8DDE8",
"u+	c #FBFDFE",
"v+	c #79C6DC",
"w+	c #17A4CD",
"x+	c #05313D",
"y+	c #154B5D",
"z+	c #329CBE",
"A+	c #53AECA",
"B+	c #43A9C8",
"C+	c #219CC1",
"D+	c #18A3CA",
"E+	c #095266",
"F+	c #02080A",
"G+	c #113C4B",
"H+	c #2788A8",
"I+	c #278AAB",
"J+	c #2293B5",
"K+	c #2195B8",
"L+	c #1C9DC3",
"M+	c #15A3CB",
"N+	c #073E4E",
"O+	c #040F13",
"P+	c #0F3643",
"Q+	c #175163",
"R+	c #1D6880",
"S+	c #227893",
"T+	c #247F9D",
"U+	c #2688A7",
"V+	c #1D93B7",
"W+	c #1A8DB0",
"X+	c #1786A7",
"Y+	c #13728E",
"Z+	c #0E5A6F",
"`+	c #093A49",
" @	c #040E13",
".@	c #040D10",
"+@	c #030C0E",
"@@	c #030A0C",
"#@	c #020A0C",
"$@	c #020B0E",
"%@	c #020B0F",
"&@	c #020E10",
"*@	c #030F12",
"                                                                ",
"                              . +                               ",
"                        @ # $ % & * = -                         ",
"                    ; > , ' ) ! ~ { ] ^ /                       ",
"                    ( _ : < [ } ! ~ | 1 2 -                     ",
"                  3 4 5 6 : 7 8 9 0 a b c d e                   ",
"                f g h i j k l m 8 n o a p 1 q                   ",
"                r s t u i v w x m y z A { B C                   ",
"                D E F G H I _ J < K ) ! ~ L M N                 ",
"                r O P Q R S 5 _ : T [ } U ~ V W                 ",
"                r X Y P Z `  .5 k ..+.8 n @.#.                  ",
"                $.%.&.*.=.t -.i v ;.l m y n >.                  ",
"                  ,.'.&.E ).!.u ~.v w < ' {.].                  ",
"                  ^./.(.O _.Q R S I _ : :.<.                    ",
"                    [.}.|.O P Z R S 5 6 1.                      ",
"                    2.3.4.|.Y 5.6.-.i v 7.;                     ",
"                    8.9.0.a.&.E =.t u i 5 b.                    ",
"                  D c.d.9.0.(.&.E F G H I e.[.                  ",
"                f.g.h.i.d.j.k.l.m.P Z R S 5 n.o.                ",
"                p.q.r.s.t.u.v.w.x.y.z.Z ` A.B.C.                ",
"              D.E.F.G.r.H.I.J.K.L.w.M.=.t -.i N.O.              ",
"              P.Q.R.S.T.U.J.V.W.0.X.J.Y.).!.u Z.`.              ",
"             +.+++@+#+S.$+J.%+&+*+=+J.-+;+Q R S >+$.            ",
"            ,+'+)+!+~+#+{+J.]+^+/+(+_+:+O P Z ` <+[+            ",
"          }+|+1+2+3+4+5+6+J.7+8+9+0+a+4.|.Y 5.6.-.b+            ",
"          c+d+1+1+e+f+g+h+i+J.j+k+l+m+n+a.&.E =.!.o+p+          ",
"          q+1+1+1+1+r+++@+s+t+J.J.J.u+v+0.(.w+E F G x+          ",
"          y+1+1+1+1+1+)+++~+#+z+A+B+C+d.j.k.D+O P Z E+          ",
"        F+G+H+1+1+1+1+I+)+4+5+J+K+r.s.t.L+a+k.|.Y M+N+          ",
"           +O+P+Q+R+S+T+U+f+g+5+F.G.r.V+W+X+Y+Z+`+r D           ",
"                   @.@+@@@#@ +f.f.$@#@%@&@r *@                  ",
"                                                                "};
